<?xml version="1.0" standalone="no"?>
<!DOCTYPE svg PUBLIC "-//W3C//DTD SVG 20010904//EN"
 "http://www.w3.org/TR/2001/REC-SVG-20010904/DTD/svg10.dtd">
<svg version="1.0" xmlns="http://www.w3.org/2000/svg"
 width="104.000000pt" height="104.000000pt" viewBox="0 0 104.000000 104.000000"
 preserveAspectRatio="xMidYMid meet">
<metadata>
Created by potrace 1.14, written by Peter Selinger 2001-2017
</metadata>
<g transform="translate(0.000000,104.000000) scale(0.100000,-0.100000)"
fill="#000000" stroke="none">
<path d="M0 520 l0 -390 520 0 520 0 0 390 0 390 -520 0 -520 0 0 -390z m548
307 c8 -9 8 -25 1 -53 -47 -179 -128 -353 -215 -458 -98 -119 -206 -140 -250
-48 -25 54 -14 168 36 367 24 94 45 172 46 174 8 9 54 -11 77 -35 34 -34 34
-52 -4 -166 -39 -117 -51 -255 -24 -278 14 -12 21 -11 51 5 19 10 46 33 60 52
65 86 146 272 169 393 11 55 32 73 53 47z m66 -361 c37 -16 76 -60 76 -87 0
-11 5 -19 10 -19 6 0 10 9 10 19 0 31 48 80 90 92 32 10 44 9 76 -7 21 -11 47
-31 58 -46 27 -38 26 -109 -2 -148 -12 -16 -22 -32 -22 -35 0 -11 47 -4 68 11
20 13 22 13 22 0 0 -9 -14 -23 -32 -32 -27 -14 -37 -15 -65 -5 -18 7 -42 9
-53 6 -48 -15 -140 48 -140 96 0 10 -4 19 -10 19 -5 0 -10 -9 -10 -19 0 -31
-48 -80 -90 -92 -32 -10 -44 -9 -76 7 -53 27 -77 64 -77 119 0 54 23 92 74
117 41 22 50 22 93 4z"/>
</g>
</svg>
